# Blender 3.4.1
# www.blender.org
mtllib rock.mtl
o rock
v 1.345348 -0.643423 1.346570
v -0.513867 -0.643423 2.178815
v -1.662953 -0.643423 0.000000
v -0.513867 -0.643423 -2.178815
v 0.240638 0.705114 1.903366
v 0.325473 0.664219 -2.022591
v 0.248822 1.053632 1.055013
v 0.805217 1.053636 0.000000
v 0.248822 1.053632 -1.055013
v -0.651436 1.053632 0.652028
v -0.955662 0.040324 -1.736614
v -1.494200 0.040317 -0.715473
v -1.345348 0.643423 -0.466888
v -1.051368 0.665105 -1.025712
v -0.738062 0.643423 -1.618411
v 1.345348 -0.643423 -0.180379
v 0.695471 -1.027601 -0.696102
v 0.540272 -0.643423 -1.706948
v 0.828743 0.156103 -1.863649
v 1.542681 0.156112 -0.509928
v -1.423283 -0.758045 0.000000
v -0.439811 -0.758038 -1.864817
v 0.695432 -1.027624 -0.696064
v 1.151464 -0.758038 1.152510
v -0.439811 -0.758038 1.864817
v -1.517632 -0.054625 0.616125
v -0.894317 -0.054617 1.798015
v -0.642463 0.643423 1.661204
v -0.777962 0.978836 0.778668
v -1.345348 0.643423 0.328407
v 1.542692 0.156159 -0.509878
v 1.113231 0.643423 -1.042343
v 1.113231 0.643423 1.042343
v 1.444939 -0.239909 0.924329
vn -0.4207 -0.8797 -0.2219
vn 0.5089 -0.8608 -0.0000
vn 0.1668 -0.9129 0.3726
vn 0.1668 -0.9129 -0.3726
vn 0.3211 -0.1721 -0.9313
vn 0.4082 -0.0421 0.9119
vn -0.3034 0.3293 0.8941
vn -0.8540 -0.2605 0.4504
vn 0.4164 0.8693 -0.2662
vn -0.1665 0.9128 0.3729
vn -0.2158 0.9296 -0.2989
vn 0.5737 0.7976 0.1864
vn -0.8540 -0.2605 -0.4504
vn 0.7781 0.3838 -0.4972
vn -0.0000 1.0000 -0.0000
vn -0.3424 0.9321 -0.1182
vn -0.8206 0.3733 -0.4328
vn -0.3526 0.3213 -0.8789
vn 0.7899 -0.4500 -0.4166
vn 0.7281 0.2793 0.6260
vn -0.0726 -0.9966 0.0383
vn -0.4207 -0.8797 0.2219
vn -0.7899 0.4500 0.4166
vn -0.9709 0.2396 -0.0000
vn 0.8609 0.5024 0.0805
vn 0.9709 -0.2396 -0.0000
vt 0.270969 0.185590
vt 0.124588 0.185590
vt 0.507812 0.185590
vt 0.891037 0.185590
vt 0.124588 0.764844
vt 0.891037 0.764844
vt 0.322250 0.949493
vt 0.507812 0.949495
vt 0.693375 0.949493
vt 0.393130 0.949493
vt 0.813259 0.493368
vt 0.633655 0.493365
vt 0.589932 0.764844
vt 0.658355 0.895289
vt 0.792469 0.764844
vt 0.539539 0.185590
vt 0.630248 0.012658
vt 0.808042 0.185590
vt 0.835603 0.545484
vt 0.597502 0.545488
vt 0.507812 0.133995
vt 0.835809 0.133998
vt 0.630241 0.012648
vt 0.305102 0.133998
vt 0.179816 0.133998
vt 0.399444 0.450628
vt 0.191566 0.450632
vt 0.215629 0.764844
vt 0.370855 0.915825
vt 0.450050 0.764844
vt 0.597493 0.545509
vt 0.691146 0.764844
vt 0.324478 0.764844
vt 0.345235 0.367226
s 0
usemtl rock
f 22/22/1 21/21/1 3/3/1 4/4/1
f 1/1/2 24/24/2 23/23/2 17/17/2 16/16/2
f 25/25/3 24/24/3 1/1/3 2/2/3
f 23/23/4 22/22/4 4/4/4 18/18/4 17/17/4
f 19/19/5 18/18/5 4/4/5 6/6/5
f 2/2/6 1/1/6 5/5/6
f 2/2/7 5/5/7 28/28/7 27/27/7
f 3/3/8 2/2/8 27/27/8 26/26/8
f 32/32/9 6/6/9 9/9/9 8/8/9
f 29/29/10 28/28/10 5/5/10 7/7/10 10/10/10
f 6/6/11 15/15/11 14/14/11 9/9/11
f 5/5/12 33/33/12 32/32/12 8/8/12 7/7/12
f 4/4/13 3/3/13 12/12/13 11/11/13
f 20/20/14 19/19/14 6/6/14 32/32/14 31/31/14
f 7/7/15 8/8/15 9/9/15 10/10/15
f 14/14/16 13/13/16 30/30/16 29/29/16 10/10/16 9/9/16
f 11/11/17 12/12/17 13/13/17 14/14/17 15/15/17
f 4/4/18 11/11/18 15/15/18 6/6/18
f 16/16/19 17/17/19 18/18/19 19/19/19 20/20/19
f 1/1/20 34/34/20 33/33/20 5/5/20
f 21/21/21 22/22/21 23/23/21 24/24/21 25/25/21
f 21/21/22 25/25/22 2/2/22 3/3/22
f 26/26/23 27/27/23 28/28/23 29/29/23 30/30/23
f 3/3/24 26/26/24 30/30/24 13/13/24 12/12/24
f 31/31/25 32/32/25 33/33/25 34/34/25
f 1/1/26 16/16/26 20/20/26 31/31/26 34/34/26
